<?xml version="1.0" encoding="utf-8"?>
<!-- Generator: Adobe Illustrator 16.0.0, SVG Export Plug-In . SVG Version: 6.00 Build 0)  -->
<!DOCTYPE svg PUBLIC "-//W3C//DTD SVG 1.1//EN" "http://www.w3.org/Graphics/SVG/1.1/DTD/svg11.dtd">
<svg version="1.1" id="Layer_1" xmlns="http://www.w3.org/2000/svg" xmlns:xlink="http://www.w3.org/1999/xlink" x="0px" y="0px"
	 width="1000px" height="1000px" viewBox="0 0 1000 1000" enable-background="new 0 0 1000 1000" xml:space="preserve">
<g>
	<path fill="#646569" d="M115.766,864.779v78.156h45.002v19.418h-64.51v-97.574H115.766z"/>
	<path fill="#646569" d="M190.305,864.779v97.574H170.81v-97.574H190.305z"/>
	<path fill="#646569" d="M200.316,962.354v-97.574h39.182c7.06,0,13.365,2.18,18.953,6.549c6.861,5.289,10.306,12.818,10.306,22.609
		c0,5.473-1.166,10.305-3.458,14.469c8.788,5.305,13.199,13.562,13.199,24.789c0,9.674-3.433,17.203-10.294,22.607
		c-5.401,4.361-11.718,6.551-18.956,6.551H200.316z M219.825,903.678h19.673c6.517-0.182,9.75-3.424,9.75-9.74
		c0-6.443-3.234-9.676-9.75-9.676h-19.673V903.678z M219.825,942.936h29.167c6.682-0.172,10.01-3.424,10.01-9.74
		c0-6.686-3.257-10.008-9.753-10.008h-29.424V942.936z"/>
	<g>
		<polyline fill="#646569" points="300.655,634.037 521.213,634.037 521.213,557.936 377.896,557.148 377.896,247.529 
			300.655,247.529 		"/>
	</g>
	<path fill="#646569" d="M366.695,903.678c0,14.578-5.351,25.297-16.034,32.168l9.658,26.508h-20.776l-7.379-19.955
		c-1.881,0.172-3.378,0.273-4.472,0.273h-19.67v19.682h-19.495v-97.85h39.166c6.507,0,13.017,1.66,19.508,5.018
		C360.204,876.014,366.695,887.396,366.695,903.678z M327.692,923.188c3.167,0,6.425-0.805,9.753-2.373
		c6.509-3.35,9.755-9.051,9.755-17.137c0-8.199-3.246-13.871-9.755-17.035c-3.329-1.768-6.587-2.654-9.753-2.654h-19.67v39.199
		H327.692z"/>
	<path fill="#646569" d="M445.152,864.779v19.482h-48.933v19.416h41.006v19.51h-41.006v19.748h48.933v19.418h-68.42v-97.574H445.152
		z"/>
	<path fill="#72D54A" d="M474.675,864.779v97.574h-19.509v-97.574H474.675z"/>
	<path fill="#72D54A" d="M484.682,962.354v-97.574l56.609,52.57v-52.57h19.758v97.574l-56.859-52.855v52.855H484.682z"/>
	<path fill="#72D54A" d="M571.07,962.354v-97.574l56.586,52.57v-52.57h19.764v97.574l-56.855-52.855v52.855H571.07z"/>
	<path fill="#72D54A" d="M671.648,878.98c9.658-9.459,21.25-14.201,34.705-14.201c13.57,0,25.055,4.742,34.473,14.201
		c9.459,9.494,14.201,20.949,14.201,34.465c0,13.473-4.742,25.039-14.201,34.705c-9.418,9.477-20.902,14.203-34.473,14.203
		c-13.455,0-25.047-4.727-34.705-14.203c-9.461-9.666-14.203-21.232-14.203-34.705C657.445,899.93,662.188,888.475,671.648,878.98z
		 M685.6,934.223c5.764,5.82,12.693,8.713,20.754,8.713c8.084,0,14.93-2.893,20.535-8.713c5.82-5.787,8.73-12.719,8.73-20.777
		c0-8.107-2.91-14.932-8.73-20.512c-5.605-5.777-12.451-8.672-20.535-8.672c-8.061,0-14.99,2.895-20.754,8.672
		c-5.76,5.58-8.662,12.404-8.662,20.512C676.938,921.504,679.84,928.436,685.6,934.223z"/>
	<path fill="#72D54A" d="M792.471,962.354l-42.002-97.574h22.508l19.494,50.107l19.416-50.107h22.51L792.471,962.354z"/>
	<path fill="#72D54A" d="M903.742,962.354h-22.875l-5.473-13.662H834.57l-5.555,13.662h-22.875l48.926-97.574L903.742,962.354z
		 M866.922,928.734l-11.855-23.697l-11.822,23.697H866.922z"/>
	<g>
		<g>
			<polygon fill="#72D54A" points="96.283,37.647 96.283,843.918 325.577,843.918 325.577,693.682 246.521,693.682 246.521,187.897 
				752.291,187.897 752.291,693.682 447.597,693.682 325.577,843.918 902.555,843.918 902.555,37.647 			"/>
		</g>
	</g>
	<path fill="#72D54A" d="M491.829,247.529v237.332h-52.688V247.529H491.829z"/>
	<path fill="#72D54A" d="M520.605,484.861V247.529l137.621,127.786V247.529h48.012v237.332L568.119,356.337v128.523H520.605z"/>
</g>
</svg>
